<?xml version="1.0" encoding="utf-8"?>
<!-- Generator: Adobe Illustrator 17.0.0, SVG Export Plug-In . SVG Version: 6.00 Build 0)  -->
<!DOCTYPE svg PUBLIC "-//W3C//DTD SVG 1.1//EN" "http://www.w3.org/Graphics/SVG/1.1/DTD/svg11.dtd">
<svg version="1.1" id="Layer_1" xmlns="http://www.w3.org/2000/svg" xmlns:xlink="http://www.w3.org/1999/xlink" x="0px" y="0px"
	 width="197px" height="34px" viewBox="0 0 197 34" enable-background="new 0 0 197 34" xml:space="preserve">
<g>
	<g>
		<path fill="#f8f0e8" d="M41.489,0c-4.013,0-7.452,1.555-9.976,3.946c-0.318,0.301-0.835,0.281-1.127-0.045C28.145,1.386,24.983,0,21.144,0
			c-3.511,0-6.565,1.188-8.976,3.071c-0.358,0.28-0.878,0.182-1.139-0.189C9.689,0.976,7.576,0,5.075,0
			C3.39,0,1.876,0.477,0.57,1.241c-0.655,0.384-0.566,0.836-0.566,0.836l1.161,6.683l0.008,0.003C1.2,8.953,1.351,9.107,1.552,9.118
			c0.105,0.006,0.203-0.028,0.28-0.088c0.002-0.001,0.004-0.003,0.005-0.004c0.001-0.001,0.001-0.001,0.002-0.002
			C2.026,8.863,2.31,8.759,2.692,8.759c0.978,0,1.344,0.908,1.344,2.401v21.262c0,0.441,0.36,0.799,0.805,0.799h7.86
			c0.445,0,0.805-0.358,0.805-0.799V14.729c0-3.763,2.199-6.229,5.56-6.229c3.421,0,5.315,2.466,5.315,6.229v17.693
			c0,0.441,0.36,0.799,0.805,0.799h7.86c0.445,0,0.805-0.358,0.805-0.799V14.729c0-3.763,2.199-6.229,5.56-6.229
			c3.36,0,5.315,2.466,5.315,6.229v17.693c0,0.441,0.36,0.799,0.805,0.799h7.86c0.445,0,0.805-0.358,0.805-0.799V14.015
			C54.197,5.515,49.065,0,41.489,0z"/>
		<path fill="#f8f0e8" d="M72.531,0c-9.837,0-16.435,7.137-16.435,17.065C56.096,28.16,64.283,34,73.448,34c4.827,0,10.448-1.622,13.869-5.905
			v-0.714l-4.277-4.347h-0.672c-2.016,2.336-5.254,3.569-8.493,3.569c-3.979,0-7.535-1.966-8.453-6.158
			c-0.11-0.501,0.274-0.98,0.791-0.98h21.613c0.417,0,0.761-0.316,0.803-0.728c0.062-0.61,0.093-1.238,0.093-1.932
			C88.722,7.008,82.246,0,72.531,0z M78.768,14.275H66.103c-0.496,0-0.877-0.444-0.799-0.931c0.624-3.921,3.421-6.272,7.166-6.272
			c3.694,0,6.436,2.245,7.096,6.266C79.647,13.827,79.267,14.275,78.768,14.275z"/>
		<path fill="#f8f0e8" d="M110.637,0c-3.618,0-6.728,1.184-9.147,3.063c-0.363,0.282-0.888,0.177-1.146-0.203C99.057,0.969,96.998,0,94.507,0
			c-0.017,0-0.033,0.003-0.05,0.003C94.434,0.003,94.412,0,94.389,0c-1.67,0-3.172,0.469-4.469,1.221
			c-0.012,0.007-0.026,0.012-0.039,0.019c-0.007,0.004-0.012,0.011-0.018,0.015c-0.604,0.365-0.551,0.781-0.546,0.815l-0.003,0.006
			l1.161,6.683l0.013,0.007c0.028,0.189,0.178,0.341,0.378,0.352c0.073,0.004,0.139-0.016,0.2-0.045l0.02,0.011
			c0.023-0.025,0.054-0.045,0.081-0.067c0.089-0.074,0.198-0.135,0.329-0.179c0.012-0.004,0.025-0.006,0.037-0.01
			c0.137-0.041,0.292-0.068,0.472-0.068c0.976,0.001,1.342,0.909,1.342,2.401v21.262c0,0.441,0.36,0.799,0.805,0.799h7.86
			c0.445,0,0.805-0.358,0.805-0.799V14.729c0-3.634,2.199-6.229,5.743-6.229c3.605,0,5.56,2.595,5.56,6.229v17.693
			c0,0.441,0.36,0.799,0.805,0.799h7.86c0.445,0,0.805-0.358,0.805-0.799V14.015C123.589,5.515,118.396,0,110.637,0z"/>
		<path fill="#f8f0e8" d="M143.164,0c-10.203,0-17.168,7.202-17.168,17c0,9.798,6.965,17,17.168,17c10.142,0,17.168-7.202,17.168-17
			C160.332,7.202,153.306,0,143.164,0z M143.164,25.435c-4.46,0-7.576-3.504-7.576-8.435c0-4.931,3.116-8.435,7.576-8.435
			c4.46,0,7.576,3.504,7.576,8.435C150.74,21.931,147.624,25.435,143.164,25.435z"/>
		<path fill="#f8f0e8" d="M179.832,0c-10.203,0-17.168,7.202-17.168,17c0,9.798,6.965,17,17.168,17C189.974,34,197,26.798,197,17
			C197,7.202,189.974,0,179.832,0z M179.832,25.435c-4.46,0-7.576-3.504-7.576-8.435c0-4.931,3.116-8.435,7.576-8.435
			c4.46,0,7.576,3.504,7.576,8.435C187.408,21.931,184.292,25.435,179.832,25.435z"/>
	</g>
</g>
</svg>
